#!OML:ASF E:/inclinewalkrobotboard/Project1/Captureday1/Session1/subject1.ASF
:FULLY-SPECIFIED
:DEGREES
63
root 0 0 0 1.1407462447836245 -3.69587650534552 1.8124630662177506
lowerback 11.992344863567647 0.8629310205409733 -0.092623273649314
upperback -4.2040447422504865 1.0891291301683594 -0.5487282774428474
thorax -11.319834492112362 0.49986764146269635 -0.7753994877173349
lowerneck -6.0186587396419835 1.4858147224986904 4.493794126308295
upperneck 18.1223614271434 2.9327131627277065 -8.204649783147852
head 6.658628847717672 1.0694892488892338 -3.1688536549456114
rclavicle -1.0774703135541013E-15 5.019737919662314E-16
rhumerus 19.523203122546526 13.949358007522935 -47.844835840482645
rradius 71.95552214730286
rwrist 27.17401177266111
rhand -34.78360626699229 -57.25968797504361
rfingers 7.12502000000004
rthumb -7.928021005848924 -87.03901022577708
lclavicle 1.4872705745629457E-15 -2.257972766924511E-15
lhumerus 20.436687568718952 -12.27728812664334 45.70516451994452
lradius 69.38761375585943
lwrist -22.117592666279744
lhand -44.66349420505051 -69.66677895156461
lfingers 7.125020000000015
lthumb -17.476157483691605 -40.529525240777346
rfemur -25.158379792936945 -2.1579312133916937 16.888152078438406
rtibia 54.17526920052704
rfoot -28.118558760339482 -16.737515187605695
rtoes -17.878485375639205
lfemur -27.297981572790924 2.4651010132865503 -18.272437242031337
ltibia 53.72894045370559
lfoot -31.608099644556958 -3.356921199455767
ltoes -19.42340768788876
64
root 0 0 0 1.1200847984450593 -3.726306547694134 1.8070252521034702
lowerback 11.995841488564443 0.8628263544668815 -0.08250426632909888
upperback -4.18962566165603 1.0909759912592278 -0.5433149387997938
thorax -11.30570533799801 0.5005292311928958 -0.775450902627002
lowerneck -5.955566714411983 1.4753544316897638 4.51188132559088
upperneck 18.0670297591053 2.921145046270623 -8.246208352380396
head 6.6300467310371305 1.0642713687798597 -3.186023151669909
rclavicle -1.2388067678496073E-15 4.0438206663738E-16
rhumerus 19.612684421918075 14.020457628939894 -47.817493994167705
rradius 72.04832987561846
rwrist 27.218783696035864
rhand -34.899830731232704 -57.53574331735638
rfingers 7.125020000000043
rthumb -8.040895981283974 -87.31544848046005
lclavicle 1.1178349613176174E-15 -2.726121505366706E-15
lhumerus 20.57735455269369 -12.294761128142154 45.6371979406239
lradius 69.51103606573216
lwrist -22.195936333693915
lhand -44.755368796509735 -70.15725146618466
lfingers 7.125020000000016
lthumb -17.563309203079402 -41.04770063659127
rfemur -25.19663152193557 -2.1638629861732257 16.89099210781037
rtibia 54.20232742458205
rfoot -28.208164378073057 -16.761910473692087
rtoes -17.8513476268588
lfemur -27.4463508033856 2.4782548321022224 -18.27244690299396
ltibia 53.67716146677081
lfoot -31.87102380033323 -3.267128457432778
ltoes -19.49878493635764
65
root 0 0 0 1.1148970075413902 -3.73208319655677 1.8053737073493612
lowerback 11.996292627721198 0.8625619580821445 -0.08000941112396323
upperback -4.186043780482103 1.0911445116452487 -0.5417622623232388
thorax -11.30192734757172 0.5005331387640963 -0.7752217726526933
lowerneck -5.940333236163906 1.4726318918272654 4.516069206816016
upperneck 18.053641254905447 2.918010506017504 -8.255880723904049
head 6.62311832269807 1.0628655948464791 -3.1900356442677036
rclavicle -1.2732613830580292E-15 4.2188238927607253E-16
rhumerus 19.62632172043459 14.033058203027863 -47.81711728444574
rradius 72.06244786859524
rwrist 27.22017468834363
rhand -34.9067655693318 -57.55687508384928
rfingers 7.125020000000043
rthumb -8.047662568564308 -87.33722390186358
lclavicle 1.0212833632290969E-15 -2.696928219124997E-15
lhumerus 20.592245184282618 -12.29866953068279 45.63311993506423
lradius 69.52480075171943
lwrist -22.20063959302738
lhand -44.76490485111805 -70.20120217626271
lfingers 7.125020000000016
lthumb -17.57226838167406 -41.094895149425014
rfemur -25.194347583342626 -2.16300319658152 16.894559195518585
rtibia 54.19746686770683
rfoot -28.22213241966532 -16.76511742261561
rtoes -17.853352154617696
lfemur -27.449120554041052 2.478861173854818 -18.267590127035266
ltibia 53.664444880050105
lfoot -31.883653632021275 -3.2571909218890163
ltoes -19.532176946132427
66
root 0 0 0 1.1122224076956089 -3.7350626283199793 1.804433482509861
lowerback 11.996156044495075 0.8623825580690107 -0.07878828658706136
upperback -4.184489797859368 1.0911575186096902 -0.5409469161367668
thorax -11.300089750782973 0.5005016049899836 -0.7750359618571818
lowerneck -5.93307298652155 1.471496603995667 4.517976511037631
upperneck 18.04795781435197 2.9167766829868276 -8.260292267694838
head 6.620028185655981 1.062311521850769 -3.1918469620614367
rclavicle -1.2581946675742774E-15 4.0312686300054425E-16
rhumerus 19.63124503903805 14.037928225916335 -47.814928148526946
rradius 72.06514355687351
rwrist 27.219340873271392
rhand -34.90005132378704 -57.54870228472187
rfingers 7.125020000000043
rthumb -8.041162968481231 -87.32891225490708
lclavicle 1.038137712131178E-15 -2.7162521803433138E-15
lhumerus 20.594714647233847 -12.303084220724807 45.627407409413095
lradius 69.52825731162548
lwrist -22.202289515715908
lhand -44.76268915486245 -70.18725721586097
lfingers 7.125020000000016
lthumb -17.57010871814766 -41.0808247089716
rfemur -25.192795405356517 -2.1626976017052804 16.895681213926792
rtibia 54.197039292508684
rfoot -28.224906132498297 -16.765183336910024
rtoes -17.854278031000405
lfemur -27.447539908299582 2.4794833628127746 -18.266205900000116
ltibia 53.66276198500481
lfoot -31.88504778704248 -3.255430437233291
ltoes -19.543497548207178
